<?xml version="1.0" standalone="no"?>
<!DOCTYPE svg PUBLIC "-//W3C//DTD SVG 20010904//EN"
 "http://www.w3.org/TR/2001/REC-SVG-20010904/DTD/svg10.dtd">
<svg version="1.0" xmlns="http://www.w3.org/2000/svg"
 width="147.000000pt" height="176.000000pt" viewBox="0 0 147.000000 176.000000"
 preserveAspectRatio="xMidYMid meet">
<metadata>
Created by potrace 1.16, written by Peter Selinger 2001-2019
</metadata>
<g transform="translate(0.000000,176.000000) scale(0.100000,-0.100000)"
fill="#000000" stroke="none">
<path d="M0 880 l0 -880 735 0 735 0 0 880 0 880 -735 0 -735 0 0 -880z m1120
239 l0 -110 -27 3 c-27 3 -28 6 -35 71 -3 38 -9 71 -12 74 -2 3 -52 8 -110 10
l-106 6 0 -336 0 -335 63 -9 c54 -7 62 -11 65 -30 l3 -23 -221 0 -221 0 3 22
c3 20 12 24 61 32 l57 8 0 336 0 335 -101 -6 c-56 -4 -103 -8 -105 -10 -2 -2
-7 -35 -11 -73 -8 -66 -9 -69 -35 -72 l-28 -3 0 110 0 111 380 0 380 0 0 -111z"/>
</g>
</svg>
